<svg width="93" height="31" viewBox="0 0 93 31" fill="none" xmlns="http://www.w3.org/2000/svg">
<path fill-rule="evenodd" clip-rule="evenodd" d="M24.1786 26.0765L23.7198 23.2508L23.261 20.4239L24.9 21.7091C26.9269 18.8012 27.0464 14.6958 24.8728 11.2268C24.6557 10.8826 24.4188 10.55 24.1633 10.2306C24.0238 10.0299 23.8655 9.84173 23.6902 9.66833C22.5437 8.40011 21.0882 7.41799 19.4508 6.80768L21.8159 4.10896L20.463 2.52234C22.7013 3.23272 24.7376 4.42353 26.4142 6.0025C28.0907 7.58147 29.3625 9.50623 30.131 11.6277C30.8995 13.7491 31.1441 16.0103 30.8458 18.2361C30.5476 20.4619 29.7145 22.5925 28.411 24.4629L30.3564 25.9888L27.2687 26.0327L24.1786 26.0765Z" fill="#E6E6E6"/>
<path fill-rule="evenodd" clip-rule="evenodd" d="M0.578339 18.2715C0.282732 16.1527 0.482095 13.9981 1.16223 11.961C1.84236 9.92384 2.98653 8.05439 4.51325 6.48574C6.03996 4.9171 7.91166 3.68787 9.99503 2.88559C12.0784 2.08331 14.3222 1.72772 16.5666 1.84416L16.524 3.05176e-05L18.4469 2.05556L20.3697 4.11108L18.5415 6.14974L16.7132 8.1884L16.6695 6.27681C15.0656 6.13695 13.4491 6.33793 11.937 6.86518C10.4249 7.39243 9.05498 8.23277 7.92642 9.32537C6.79786 10.418 5.93889 11.7355 5.41168 13.1826C4.88448 14.6297 4.70224 16.1701 4.87814 17.6924L1.07147 17.0627L0.578339 18.2715Z" fill="#28619B"/>
<path fill-rule="evenodd" clip-rule="evenodd" d="M2.62051 23.8623C2.31444 23.3771 2.03804 22.8755 1.79271 22.36L-5.14984e-05 23.4102L0.843116 20.761L1.68628 18.1118L4.46767 18.6448L7.24788 19.1778L5.47404 20.2145C5.67332 20.6474 5.90081 21.068 6.15519 21.4739C9.33511 26.5475 16.0154 28.3332 21.0732 25.4725C21.4431 25.2617 21.7986 25.0289 22.1375 24.7753L22.9949 27.4021L25.6734 27.5629C25.0333 28.0788 24.3499 28.5441 23.6299 28.9539C16.369 33.0649 6.96052 30.7867 2.62051 23.8623Z" fill="#E31E24"/>
<path d="M56.4837 26.1786H50.5236L45.1086 18.566H43.3502V26.1786H38.4875V5.42548H46.3137C47.2583 5.41462 48.202 5.48613 49.1329 5.63913C49.9321 5.78535 50.6892 6.09204 51.3538 6.53871C52.0482 7.00849 52.6156 7.62816 53.0093 8.34685C53.4201 9.07475 53.6255 10.0009 53.6255 11.1254C53.6255 12.7147 53.2908 14.004 52.6215 14.9936C51.9475 15.9843 51.0207 16.7966 49.9276 17.355L56.4837 26.1786ZM48.6149 11.7855C48.6276 11.3214 48.5314 10.8605 48.3335 10.4361C48.1373 10.0528 47.8082 9.7454 47.4016 9.56577C47.079 9.42442 46.7335 9.33585 46.3799 9.30377C45.9157 9.2617 45.4495 9.24256 44.9833 9.24642H43.3502V14.8316H44.7468C45.327 14.8409 45.9068 14.7964 46.478 14.699C46.9286 14.6236 47.3475 14.4287 47.6866 14.1367C47.9958 13.8826 48.236 13.5613 48.3867 13.2C48.5544 12.7449 48.6314 12.2641 48.6138 11.7821L48.6149 11.7855Z" fill="#E6E6E6"/>
<path d="M74.5932 26.1788H69.8866L62.3879 11.7103V26.1788H57.919V5.42566H63.9181L70.1231 17.3158V5.42566H74.5932V26.1788Z" fill="#28619B"/>
<path d="M84.5541 26.5545C83.064 26.5545 81.7557 26.4008 80.6291 26.0935C79.5463 25.8057 78.4937 25.4236 77.4847 24.9521V20.018H77.9305C78.868 20.8756 79.9604 21.5654 81.1554 22.0544C82.237 22.5067 83.4033 22.7476 84.5848 22.7628C84.9552 22.7544 85.3246 22.7224 85.6905 22.6672C86.073 22.6212 86.4452 22.5168 86.7927 22.358C87.1313 22.2044 87.4276 21.9781 87.6583 21.6968C87.8948 21.4112 88.0131 21.0401 88.0131 20.5723C88.0213 20.3341 87.9739 20.0971 87.8743 19.8784C87.7748 19.6597 87.6255 19.4646 87.4372 19.3073C87.0408 18.9749 86.5713 18.731 86.063 18.5933C85.4032 18.4077 84.6936 18.2312 83.9344 18.0648C83.2165 17.9089 82.5114 17.7037 81.8247 17.4508C80.3173 16.8848 79.2365 16.1236 78.5821 15.167C77.9278 14.2105 77.6006 13.011 77.6006 11.5687C77.6006 9.62789 78.3724 8.05363 79.9161 6.84595C81.4597 5.63828 83.3853 5.03856 85.6929 5.04681C86.8564 5.04646 88.0161 5.17247 89.1495 5.42238C90.2126 5.64646 91.2445 5.98799 92.2242 6.44002V11.1875H91.7914C91.0152 10.4927 90.1207 9.92808 89.146 9.51769C88.142 9.06724 87.0466 8.8312 85.9365 8.82614C85.5507 8.82387 85.1654 8.85587 84.7859 8.92172C84.4125 9.00111 84.0523 9.129 83.7156 9.30179C83.4001 9.45842 83.1291 9.68526 82.9257 9.96298C82.7051 10.2466 82.5876 10.5908 82.591 10.9435C82.591 11.472 82.7696 11.8948 83.122 12.204C83.4744 12.5133 84.1567 12.7989 85.1655 13.0463C85.8218 13.2082 86.4497 13.36 87.0576 13.5073C87.7178 13.6717 88.366 13.8768 88.9981 14.1213C90.3494 14.64 91.3546 15.3394 92.0137 16.2195C92.6728 17.0996 93.0015 18.2589 92.9999 19.6975C92.9999 21.7575 92.24 23.4165 90.72 24.6744C89.2 25.9323 87.1447 26.559 84.5541 26.5545Z" fill="#E31E24"/>
</svg>
